<svg width="630" height="676" viewBox="0 0 630 676" fill="none" xmlns="http://www.w3.org/2000/svg">
<path d="M274.057 23.2701C147.007 24.2137 43.5917 128.399 43.5496 255.447C43.5191 328.422 77.1539 393.543 129.776 436.135C162.177 462.38 181.457 501.488 181.457 543.194V545.865C184.524 545.865 365.885 545.865 370.171 545.865V544.137C370.171 501.939 389.653 462.367 422.373 435.715C474.676 393.124 508.078 328.235 508.078 255.536C508.078 126.671 403.138 22.3266 274.057 23.2701ZM435.496 299.084C427.483 299.084 420.979 292.581 420.979 284.568C420.979 276.554 427.483 270.051 435.496 270.051C443.509 270.051 450.012 276.554 450.012 284.568C450.012 292.581 443.507 299.084 435.496 299.084Z" fill="white"/>
<path d="M43.8496 255.448C43.8916 128.564 147.174 24.5125 274.06 23.5701C402.974 22.6278 507.778 126.838 507.778 255.536C507.778 328.141 474.419 392.945 422.183 435.482C389.396 462.19 369.871 501.846 369.871 544.137V545.565H369.842H369.783H369.72H369.653H369.583H369.508H369.43H369.348H369.262H369.172H369.078H368.981H368.88H368.775H368.666H368.554H368.438H368.318H368.195H368.068H367.937H367.803H367.665H367.524H367.379H367.231H367.079H366.923H366.764H366.602H366.436H366.267H366.094H365.918H365.738H365.555H365.368H365.179H364.986H364.789H364.59H364.387H364.18H363.971H363.758H363.542H363.323H363.1H362.875H362.646H362.414H362.179H361.941H361.7H361.455H361.208H360.958H360.704H360.448H360.188H359.926H359.66H359.392H359.12H358.846H358.569H358.289H358.006H357.72H357.431H357.14H356.845H356.548H356.248H355.946H355.64H355.332H355.021H354.708H354.391H354.073H353.751H353.427H353.1H352.77H352.438H352.104H351.767H351.427H351.085H350.74H350.393H350.043H349.691H349.336H348.979H348.619H348.257H347.893H347.526H347.157H346.786H346.412H346.036H345.658H345.278H344.895H344.51H344.123H343.733H343.341H342.948H342.552H342.153H341.753H341.351H340.946H340.54H340.131H339.72H339.308H338.893H338.476H338.057H337.637H337.214H336.789H336.363H335.934H335.504H335.072H334.638H334.202H333.764H333.324H332.883H332.44H331.995H331.548H331.1H330.65H330.198H329.745H329.289H328.833H328.374H327.914H327.452H326.989H326.524H326.058H325.59H325.12H324.649H324.177H323.703H323.227H322.751H322.272H321.793H321.311H320.829H320.345H319.86H319.373H318.885H318.396H317.906H317.414H316.921H316.427H315.931H315.435H314.937H314.438H313.937H313.436H312.934H312.43H311.925H311.419H310.913H310.405H309.896H309.386H308.875H308.363H307.85H307.336H306.821H306.306H305.789H305.271H304.753H304.234H303.714H303.193H302.671H302.148H301.625H301.101H300.576H300.05H299.524H298.997H298.469H297.941H297.412H296.883H296.352H295.821H295.29H294.758H294.225H293.692H293.159H292.624H292.09H291.555H291.019H290.483H289.946H289.41H288.872H288.335H287.797H287.258H286.719H286.18H285.641H285.101H284.561H284.021H283.481H282.94H282.399H281.858H281.317H280.776H280.234H279.693H279.151H278.609H278.067H277.525H276.983H276.441H275.899H275.357H274.815H274.273H273.731H273.189H272.647H272.105H271.563H271.022H270.48H269.939H269.398H268.857H268.316H267.776H267.236H266.696H266.156H265.617H265.077H264.539H264H263.462H262.924H262.387H261.85H261.313H260.777H260.241H259.706H259.171H258.637H258.103H257.57H257.037H256.505H255.974H255.443H254.912H254.382H253.853H253.325H252.797H252.27H251.743H251.217H250.692H250.168H249.645H249.122H248.6H248.079H247.559H247.039H246.52H246.003H245.486H244.97H244.455H243.941H243.428H242.915H242.404H241.894H241.385H240.877H240.37H239.863H239.358H238.855H238.352H237.85H237.35H236.85H236.352H235.855H235.359H234.865H234.372H233.88H233.389H232.899H232.411H231.924H231.439H230.954H230.472H229.99H229.51H229.031H228.554H228.078H227.604H227.131H226.66H226.19H225.722H225.255H224.79H224.326H223.864H223.403H222.945H222.487H222.032H221.578H221.126H220.675H220.226H219.779H219.334H218.89H218.449H218.009H217.57H217.134H216.699H216.267H215.836H215.407H214.98H214.555H214.132H213.711H213.291H212.874H212.459H212.046H211.634H211.225H210.818H210.413H210.01H209.61H209.211H208.814H208.42H208.028H207.638H207.25H206.864H206.481H206.1H205.721H205.345H204.97H204.598H204.229H203.862H203.497H203.134H202.774H202.416H202.061H201.708H201.358H201.01H200.665H200.322H199.982H199.644H199.309H198.976H198.646H198.318H197.993H197.671H197.352H197.035H196.721H196.409H196.1H195.794H195.491H195.19H194.892H194.597H194.305H194.016H193.729H193.446H193.165H192.887H192.612H192.34H192.071H191.804H191.541H191.281H191.024H190.77H190.518H190.27H190.025H189.783H189.544H189.308H189.076H188.846H188.62H188.397H188.177H187.96H187.746H187.536H187.329H187.125H186.925H186.728H186.534H186.343H186.156H185.972H185.792H185.615H185.441H185.271H185.104H184.941H184.781H184.624H184.472H184.322H184.177H184.034H183.896H183.761H183.629H183.501H183.377H183.257H183.14H183.027H182.917H182.811H182.709H182.611H182.516H182.426H182.339H182.256H182.176H182.101H182.029H181.961H181.898H181.838H181.782H181.757V543.194C181.757 501.394 162.434 462.202 129.965 435.901L129.776 436.135L129.965 435.901C77.41 393.364 43.8191 328.328 43.8496 255.448ZM420.679 284.568C420.679 292.746 427.317 299.384 435.496 299.384C443.673 299.384 450.312 292.746 450.312 284.568C450.312 276.389 443.674 269.751 435.496 269.751C427.317 269.751 420.679 276.389 420.679 284.568Z" stroke="#330F33" stroke-opacity="0.5" stroke-width="0.6"/>
<path d="M319.364 284.568C329.069 284.568 338.186 280.783 344.994 273.949C351.869 267.101 355.655 257.983 355.655 248.276C355.655 238.569 351.87 229.451 345.035 222.642C338.186 215.769 329.069 211.985 319.364 211.985C299.353 211.985 283.072 228.265 283.072 248.276V255.535H268.556V248.276C268.556 228.265 252.275 211.985 232.264 211.985C222.557 211.985 213.441 215.769 206.63 222.605C199.759 229.453 195.973 238.571 195.973 248.276C195.973 257.982 199.758 267.1 206.592 273.911C213.441 280.783 222.557 284.568 232.264 284.568H239.523V299.084H232.264C224.247 299.084 217.748 305.583 217.748 313.601C217.748 321.618 224.247 328.117 232.264 328.117H239.523V342.634H232.264C224.247 342.634 217.748 349.134 217.748 357.15C217.748 365.166 224.247 371.667 232.264 371.667H239.523V545.865C239.523 553.881 246.022 560.382 254.039 560.382C262.055 560.382 268.556 553.881 268.556 545.865V371.667H283.072V545.865C283.072 553.881 289.571 560.382 297.589 560.382C305.605 560.382 312.105 553.881 312.105 545.865V371.667H319.364C327.38 371.667 333.88 365.166 333.88 357.15C333.88 349.134 327.38 342.634 319.364 342.634H312.105V328.117H319.364C327.38 328.117 333.88 321.618 333.88 313.601C333.88 305.583 327.38 299.084 319.364 299.084H312.105V284.568H319.364ZM312.105 248.276C312.105 244.274 315.361 241.018 319.364 241.018C321.969 241.018 323.681 242.345 324.507 243.174C325.87 244.532 326.622 246.346 326.622 248.276C326.622 250.207 325.87 252.02 324.468 253.418C323.681 254.208 321.969 255.535 319.364 255.535H312.105V248.276ZM227.123 253.382C226.332 252.594 225.006 250.883 225.006 248.276C225.006 245.669 226.332 243.959 227.159 243.135C227.947 242.345 229.657 241.018 232.264 241.018C236.267 241.018 239.523 244.274 239.523 248.276V255.535H232.264C229.657 255.535 227.947 254.208 227.123 253.382ZM283.072 342.634H268.556V328.117H283.072V342.634ZM268.556 299.084V284.568H283.072V299.084H268.556Z" fill="#AB3356"/>
<path d="M558.886 618.448C578.929 618.448 595.177 602.199 595.177 582.156C595.177 562.113 578.929 545.865 558.886 545.865C538.843 545.865 522.595 562.113 522.595 582.156C522.595 602.199 538.843 618.448 558.886 618.448Z" fill="white"/>
<path d="M29.033 473.282C45.0738 473.282 58.0661 486.275 58.0661 502.316C58.0661 518.356 45.0738 531.349 29.033 531.349C12.9923 531.349 0 518.356 0 502.316C0 486.275 12.9923 473.282 29.033 473.282Z" fill="#AB3356"/>
<path d="M435.496 270.051C443.509 270.051 450.012 276.555 450.012 284.568C450.012 292.581 443.509 299.084 435.496 299.084C427.483 299.084 420.979 292.581 420.979 284.568C420.979 276.555 427.483 270.051 435.496 270.051Z" fill="white"/>
<path d="M101.616 23.2701C109.629 23.2701 116.132 29.7735 116.132 37.7867C116.132 45.7998 109.629 52.3032 101.616 52.3032C93.6011 52.3032 87.0991 45.7998 87.0991 37.7867C87.0991 29.7735 93.6011 23.2701 101.616 23.2701Z" fill="#340E33"/>
<path d="M101.616 589.415C109.629 589.415 116.132 595.918 116.132 603.931C116.132 611.944 109.629 618.448 101.616 618.448C93.6011 618.448 87.0991 611.944 87.0991 603.931C87.0991 595.918 93.6011 589.415 101.616 589.415Z" fill="#340E33"/>
<path d="M430.662 255.535C422.646 255.535 416.145 249.036 416.145 241.018C416.145 203.342 401.417 167.975 374.676 141.43C348.188 115.138 313.117 100.697 275.818 100.697C275.46 100.697 275.104 100.698 274.746 100.7C197.982 101.266 135.509 164.188 135.483 240.964C135.48 248.979 128.981 255.475 120.966 255.477C120.963 255.477 120.963 255.477 120.96 255.477C112.944 255.474 106.447 248.973 106.45 240.956C106.48 148.294 181.882 72.352 274.531 71.6698C274.96 71.6669 275.396 71.6654 275.826 71.6654C320.838 71.6654 363.158 89.0925 395.13 120.827C427.404 152.864 445.18 195.549 445.18 241.02C445.178 249.036 438.678 255.535 430.662 255.535Z" fill="#340E33"/>
<path d="M527.983 148.36C527.194 148.36 526.394 148.297 525.59 148.162C517.681 146.849 512.333 139.373 513.645 131.465C514.958 123.563 509.603 116.063 501.707 114.743C493.8 113.421 488.461 105.94 489.782 98.0317C491.104 90.1245 498.598 84.7912 506.493 86.1064C530.161 90.0621 546.216 112.542 542.286 136.219C541.108 143.323 534.954 148.36 527.983 148.36Z" fill="#AB3356" fill-opacity="0.5"/>
<path d="M570.936 155.519C570.144 155.519 569.341 155.453 568.534 155.318C560.625 154 555.283 146.521 556.6 138.613C561.864 107.03 540.453 77.0538 508.871 71.7901C500.962 70.472 495.62 62.9931 496.937 55.0845C498.255 47.1774 505.734 41.8367 513.644 43.1519C561.017 51.0475 593.134 96.0124 585.238 143.386C584.055 150.486 577.904 155.519 570.936 155.519Z" fill="#340F33"/>
<path d="M613.891 162.674C613.098 162.674 612.295 162.608 611.488 162.475C603.581 161.157 598.238 153.678 599.554 145.771C604.014 118.998 597.782 92.0901 582.007 70.0032C566.23 47.9163 542.799 33.2967 516.028 28.8372C508.12 27.5191 502.777 20.0402 504.094 12.1331C505.412 4.22448 512.885 -1.11615 520.799 0.199047C555.219 5.93307 585.348 24.7305 605.631 53.1292C625.915 81.525 633.926 116.121 628.192 150.542C627.009 157.641 620.86 162.674 613.891 162.674Z" fill="#AB3356"/>
<path d="M391.946 566.188C391.946 554.168 382.191 544.413 370.171 544.413C335.117 544.413 225.68 544.413 181.457 544.413C169.457 544.413 159.682 554.168 159.682 566.188C159.682 578.208 169.437 587.963 181.457 587.963H195.973C183.974 587.963 174.198 597.718 174.198 609.738C174.198 621.757 183.953 631.512 195.973 631.512H254.039C242.04 631.512 232.264 641.268 232.264 653.287C232.264 665.307 242.02 675.062 254.039 675.062H297.589C309.588 675.062 319.364 665.305 319.364 653.287C319.364 641.268 309.608 631.512 297.589 631.512H355.655C367.654 631.512 377.43 621.756 377.43 609.738C377.43 597.718 367.675 587.963 355.655 587.963H370.171C382.169 587.963 391.946 578.206 391.946 566.188Z" fill="#340F33"/>
<path d="M355.655 587.963C367.674 587.963 377.43 597.718 377.43 609.738C377.43 615.748 374.991 621.191 371.042 625.125C367.108 629.075 361.665 631.513 355.655 631.513H297.589H254.039H195.973C183.953 631.513 174.198 621.758 174.198 609.738C174.198 603.728 176.637 598.284 180.584 594.35C184.518 590.4 189.962 587.963 195.973 587.963H355.655Z" fill="#AB3356"/>
</svg>
