<svg width="320" height="307" viewBox="0 0 320 307" fill="none" xmlns="http://www.w3.org/2000/svg">
<path d="M204.141 24.0331C196.194 21.5429 193.555 18.9038 191.065 10.9576C190.825 10.1924 189.733 10.1924 189.493 10.9576C187.003 18.9038 184.364 21.5429 176.418 24.0331C175.653 24.273 175.653 25.3651 176.418 25.605C184.364 28.0951 187.003 30.7342 189.493 38.6805C189.733 39.4457 190.825 39.4457 191.065 38.6805C193.555 30.7342 196.194 28.0951 204.141 25.605C204.906 25.3651 204.906 24.273 204.141 24.0331Z" fill="#AB3356"/>
<path d="M55.2265 135.719C47.2803 133.229 44.6412 130.589 42.151 122.643C41.9111 121.878 40.819 121.878 40.5791 122.643C38.0889 130.589 35.4499 133.229 27.5036 135.719C26.7384 135.959 26.7384 137.051 27.5036 137.291C35.4499 139.781 38.0889 142.42 40.5791 150.366C40.819 151.131 41.9111 151.131 42.151 150.366C44.6412 142.42 47.2803 139.781 55.2265 137.291C55.9917 137.051 55.9917 135.959 55.2265 135.719Z" fill="white"/>
<path d="M49.6381 33.092H0V82.7301H49.6381V33.092Z" fill="#FCC84D"/>
<path d="M24.819 33.092H0V82.7301H24.819V33.092Z" fill="#E6B646"/>
<path d="M33.092 33.092H16.546V53.7746H33.092V33.092Z" fill="white"/>
<path d="M33.0921 33.092H24.8191V53.7746H33.0921V33.092Z" fill="#AB3356"/>
<path d="M248.19 78.5936H198.552V128.232H248.19V78.5936Z" fill="#FCC84D"/>
<path d="M248.19 78.5936H223.371V128.232H248.19V78.5936Z" fill="#AB3356" fill-opacity="0.4"/>
<path d="M231.644 78.5936H215.098V99.2761H231.644V78.5936Z" fill="white"/>
<path d="M223.371 78.5936H215.098V99.2761H223.371V78.5936Z" fill="#AB3356"/>
<path d="M25.0425 117.233C22.6267 110.151 21.1997 102.792 20.8026 95.363L29.0632 94.9204C29.4189 101.593 30.7012 108.203 32.8729 114.561L25.0425 117.233Z" fill="#858E99"/>
<path d="M63.9792 165.067C59.7228 162.387 55.6649 159.4 51.9213 156.19L57.3071 149.911C60.7445 152.856 64.4715 155.599 68.3846 158.064L63.9792 165.067Z" fill="#858E99"/>
<path d="M184.608 164.815L180.17 157.832C190.3 151.392 198.751 143.417 205.295 134.126L212.062 138.883C204.889 149.071 195.653 157.791 184.608 164.815Z" fill="white"/>
<path d="M215.346 67.516C212.488 59.1065 208.112 51.1768 202.345 43.9421L208.811 38.788C215.177 46.7673 220.008 55.5367 223.177 64.8521L215.346 67.516Z" fill="#858E99"/>
<path d="M57.3071 32.0951L51.9213 25.8159C71.3381 9.17063 96.9679 0 124.095 0C140.732 0 156.616 3.36712 171.301 10.0103L167.892 17.5471C154.283 11.3919 139.549 8.27301 124.095 8.27301C98.9451 8.27301 75.2264 16.7322 57.3071 32.0951Z" fill="white"/>
<path d="M169.597 157.187C169.597 130.333 146.329 108.91 118.854 111.979C98.8086 114.217 82.2295 130.015 79.152 149.948C76.5253 166.97 83.3505 182.532 95.1685 192.269C100.575 196.72 103.413 203.574 103.413 210.577V215.098H144.778V209.874C144.778 202.829 148.182 196.385 153.551 191.822C163.363 183.487 169.597 171.073 169.597 157.187Z" fill="#FFE38F"/>
<path d="M124.095 136.505L130.486 150.122L144.778 152.306L134.436 162.904L136.877 177.87L124.095 170.805L111.313 177.87L113.754 162.904L103.413 152.306L117.704 150.122L124.095 136.505Z" fill="#AB3356"/>
<path d="M107.549 239.917L107.913 241.013C110.167 247.768 116.488 252.327 123.611 252.327H124.579C131.702 252.327 138.023 247.768 140.277 241.013L140.641 239.917H107.549Z" fill="#5B6D80"/>
<path d="M140.641 231.644H107.549C105.266 231.644 103.413 229.791 103.413 227.508C103.413 225.224 105.266 223.371 107.549 223.371H140.641C142.924 223.371 144.778 225.224 144.778 227.508C144.778 229.791 142.924 231.644 140.641 231.644Z" fill="#5B6D80"/>
<path d="M320 304.943H248.521V210.663L285.344 179.855L320 210.663V304.943Z" fill="#82ACE6"/>
<path d="M284.261 219.169C288.208 219.169 291.409 215.968 291.409 212.021C291.409 208.073 288.208 204.873 284.261 204.873C280.313 204.873 277.113 208.073 277.113 212.021C277.113 215.968 280.313 219.169 284.261 219.169Z" fill="white"/>
<path d="M198.552 306.101H148.914C142.334 306.094 136.026 303.477 131.373 298.824C126.72 294.171 124.103 287.862 124.095 281.282V275.078H136.505V281.282C136.508 284.573 137.816 287.727 140.143 290.054C142.469 292.38 145.624 293.689 148.914 293.692H198.552V306.101Z" fill="#A2AEBF"/>
<path d="M223.371 293.692H210.962V306.101H223.371V293.692Z" fill="#A2AEBF"/>
</svg>
