<svg width="260" height="279" viewBox="0 0 260 279" fill="none" xmlns="http://www.w3.org/2000/svg">
<path d="M113.103 9.60357C60.6697 9.99298 17.9902 52.99 17.9728 105.423C17.9603 135.539 31.8413 162.415 53.5585 179.992C66.9303 190.824 74.8868 206.963 74.8868 224.175V225.278C76.1527 225.278 151 225.278 152.769 225.278V224.565C152.769 207.15 160.809 190.818 174.313 179.819C195.898 162.241 209.683 135.462 209.683 105.459C209.683 52.2771 166.375 9.21416 113.103 9.60357ZM179.728 123.432C176.421 123.432 173.737 120.748 173.737 117.441C173.737 114.134 176.421 111.45 179.728 111.45C183.035 111.45 185.719 114.134 185.719 117.441C185.719 120.748 183.035 123.432 179.728 123.432Z" fill="white"/>
<path d="M53.7473 179.759L53.7472 179.759C32.0974 162.236 18.2603 135.445 18.2728 105.423C18.2902 53.1548 60.8368 10.2918 113.105 9.90356C166.21 9.51537 209.383 52.4435 209.383 105.459C209.383 135.368 195.642 162.063 174.123 179.586C160.552 190.641 152.469 207.056 152.469 224.565V224.978H152.463H152.429H152.394H152.357H152.318H152.278H152.236H152.193H152.148H152.102H152.054H152.004H151.953H151.901H151.847H151.792H151.735H151.677H151.617H151.556H151.493H151.429H151.363H151.296H151.228H151.158H151.086H151.014H150.939H150.864H150.787H150.709H150.629H150.548H150.466H150.382H150.297H150.21H150.122H150.033H149.943H149.851H149.758H149.663H149.568H149.471H149.372H149.273H149.172H149.07H148.967H148.862H148.756H148.649H148.541H148.431H148.32H148.208H148.095H147.981H147.865H147.748H147.63H147.511H147.391H147.27H147.147H147.023H146.898H146.772H146.645H146.517H146.387H146.257H146.125H145.992H145.859H145.724H145.588H145.451H145.313H145.173H145.033H144.892H144.75H144.606H144.462H144.317H144.17H144.023H143.875H143.725H143.575H143.424H143.271H143.118H142.964H142.809H142.653H142.496H142.338H142.179H142.019H141.858H141.696H141.534H141.37H141.206H141.041H140.875H140.708H140.54H140.372H140.202H140.032H139.861H139.689H139.516H139.342H139.168H138.992H138.816H138.64H138.462H138.284H138.104H137.925H137.744H137.562H137.38H137.197H137.014H136.829H136.644H136.459H136.272H136.085H135.897H135.709H135.519H135.33H135.139H134.948H134.756H134.564H134.37H134.177H133.982H133.787H133.592H133.395H133.199H133.001H132.803H132.605H132.406H132.206H132.006H131.805H131.603H131.402H131.199H130.996H130.793H130.589H130.384H130.179H129.974H129.768H129.561H129.355H129.147H128.939H128.731H128.522H128.313H128.104H127.893H127.683H127.472H127.261H127.049H126.837H126.625H126.412H126.199H125.985H125.771H125.557H125.342H125.127H124.912H124.696H124.48H124.264H124.047H123.83H123.613H123.396H123.178H122.96H122.742H122.523H122.304H122.085H121.866H121.646H121.426H121.206H120.986H120.766H120.545H120.324H120.103H119.882H119.66H119.439H119.217H118.995H118.773H118.551H118.329H118.106H117.884H117.661H117.438H117.215H116.992H116.769H116.546H116.322H116.099H115.876H115.652H115.429H115.205H114.981H114.758H114.534H114.31H114.087H113.863H113.639H113.416H113.192H112.968H112.744H112.521H112.297H112.074H111.85H111.627H111.403H111.18H110.957H110.734H110.511H110.288H110.065H109.842H109.62H109.397H109.175H108.952H108.73H108.508H108.287H108.065H107.844H107.622H107.401H107.18H106.96H106.739H106.519H106.299H106.079H105.859H105.64H105.421H105.202H104.983H104.765H104.547H104.329H104.111H103.894H103.677H103.46H103.244H103.028H102.812H102.597H102.382H102.167H101.953H101.739H101.525H101.312H101.099H100.886H100.674H100.462H100.251H100.04H99.8293H99.6191H99.4094H99.2001H98.9913H98.7829H98.5749H98.3674H98.1604H97.9538H97.7478H97.5422H97.3371H97.1325H96.9284H96.7248H96.5217H96.3192H96.1171H95.9157H95.7147H95.5143H95.3145H95.1152H94.9165H94.7184H94.5209H94.3239H94.1276H93.9318H93.7367H93.5421H93.3482H93.155H92.9623H92.7703H92.579H92.3883H92.1982H92.0089H91.8202H91.6322H91.4448H91.2582H91.0723H90.887H90.7025H90.5188H90.3357H90.1534H89.9718H89.7909H89.6108H89.4315H89.253H89.0752H88.8982H88.7219H88.5465H88.3719H88.198H88.025H87.8528H87.6814H87.5109H87.3412H87.1724H87.0044H86.8372H86.6709H86.5055H86.341H86.1773H86.0146H85.8527H85.6918H85.5317H85.3726H85.2144H85.0571H84.9008H84.7454H84.5909H84.4374H84.2849H84.1334H83.9828H83.8332H83.6846H83.537H83.3904H83.2447H83.1002H82.9566H82.8141H82.6726H82.5321H82.3927H82.2543H82.117H81.9808H81.8457H81.7116H81.5786H81.4467H81.3159H81.1862H81.0577H80.9302H80.8039H80.6787H80.5547H80.4318H80.31H80.1894H80.07H79.9518H79.8347H79.7188H79.6041H79.4906H79.3783H79.2673H79.1574H79.0488H78.9414H78.8352H78.7303H78.6266H78.5242H78.4231H78.3232H78.2246H78.1273H78.0313H77.9366H77.8432H77.7511H77.6603H77.5708H77.4827H77.3959H77.3104H77.2263H77.1436H77.0622H76.9821H76.9035H76.8262H76.7504H76.6759H76.6028H76.5312H76.4609H76.3921H76.3247H76.2587H76.1942H76.1311H76.0695H76.0094H75.9507H75.8935H75.8377H75.7835H75.7307H75.6795H75.6297H75.5815H75.5348H75.4896H75.446H75.4038H75.3633H75.3243H75.2868H75.2509H75.2166H75.1868V224.175C75.1868 206.87 67.187 190.646 53.7473 179.759ZM173.437 117.441C173.437 120.913 176.256 123.732 179.728 123.732C183.2 123.732 186.019 120.913 186.019 117.441C186.019 113.968 183.201 111.15 179.728 111.15C176.256 111.15 173.437 113.968 173.437 117.441Z" stroke="#330F33" stroke-opacity="0.5" stroke-width="0.6"/>
<path d="M131.801 117.441C135.806 117.441 139.569 115.879 142.378 113.058C145.216 110.232 146.778 106.469 146.778 102.463C146.778 98.4571 145.216 94.6942 142.395 91.8839C139.569 89.0477 135.806 87.4859 131.801 87.4859C123.542 87.4859 116.823 94.2047 116.823 102.463V105.459H110.833V102.463C110.833 94.2047 104.114 87.4859 95.8552 87.4859C91.849 87.4859 88.0867 89.0477 85.2758 91.8689C82.4402 94.6948 80.8778 98.4577 80.8778 102.463C80.8778 106.469 82.4396 110.232 85.2602 113.043C88.0867 115.879 91.849 117.441 95.8552 117.441H98.8506V123.432H95.8552C92.5464 123.432 89.8642 126.114 89.8642 129.423C89.8642 132.731 92.5464 135.413 95.8552 135.413H98.8506V141.404H95.8552C92.5464 141.404 89.8642 144.087 89.8642 147.395C89.8642 150.704 92.5464 153.386 95.8552 153.386H98.8506V225.278C98.8506 228.586 101.533 231.269 104.842 231.269C108.15 231.269 110.833 228.586 110.833 225.278V153.386H116.823V225.278C116.823 228.586 119.506 231.269 122.814 231.269C126.123 231.269 128.805 228.586 128.805 225.278V153.386H131.801C135.109 153.386 137.792 150.704 137.792 147.395C137.792 144.087 135.109 141.404 131.801 141.404H128.805V135.413H131.801C135.109 135.413 137.792 132.731 137.792 129.423C137.792 126.114 135.109 123.432 131.801 123.432H128.805V117.441H131.801ZM128.805 102.463C128.805 100.812 130.149 99.4678 131.801 99.4678C132.876 99.4678 133.583 100.015 133.923 100.357C134.486 100.918 134.796 101.666 134.796 102.463C134.796 103.26 134.486 104.008 133.907 104.585C133.583 104.911 132.876 105.459 131.801 105.459H128.805V102.463ZM93.7332 104.57C93.4067 104.245 92.8597 103.539 92.8597 102.463C92.8597 101.387 93.4067 100.682 93.7481 100.341C94.0735 100.015 94.7792 99.4678 95.8552 99.4678C97.5069 99.4678 98.8506 100.812 98.8506 102.463V105.459H95.8552C94.7792 105.459 94.0735 104.911 93.7332 104.57ZM116.823 141.404H110.833V135.413H116.823V141.404ZM110.833 123.432V117.441H116.823V123.432H110.833Z" fill="#AB3356"/>
<path d="M230.651 255.232C238.923 255.232 245.629 248.527 245.629 240.255C245.629 231.983 238.923 225.278 230.651 225.278C222.38 225.278 215.674 231.983 215.674 240.255C215.674 248.527 222.38 255.232 230.651 255.232Z" fill="white"/>
<path d="M11.9819 195.323C18.6019 195.323 23.9638 200.685 23.9638 207.305C23.9638 213.925 18.6019 219.287 11.9819 219.287C5.3619 219.287 0 213.925 0 207.305C0 200.685 5.3619 195.323 11.9819 195.323Z" fill="#AB3356"/>
<path d="M179.728 111.45C183.035 111.45 185.719 114.134 185.719 117.441C185.719 120.748 183.035 123.432 179.728 123.432C176.421 123.432 173.737 120.748 173.737 117.441C173.737 114.134 176.421 111.45 179.728 111.45Z" fill="white"/>
<path d="M41.9366 9.60358C45.2436 9.60358 47.9276 12.2875 47.9276 15.5945C47.9276 18.9015 45.2436 21.5855 41.9366 21.5855C38.629 21.5855 35.9457 18.9015 35.9457 15.5945C35.9457 12.2875 38.629 9.60358 41.9366 9.60358Z" fill="#340E33"/>
<path d="M41.9366 243.25C45.2436 243.25 47.9276 245.934 47.9276 249.241C47.9276 252.548 45.2436 255.232 41.9366 255.232C38.629 255.232 35.9457 252.548 35.9457 249.241C35.9457 245.934 38.629 243.25 41.9366 243.25Z" fill="#340E33"/>
<path d="M177.733 105.459C174.425 105.459 171.742 102.777 171.742 99.4678C171.742 83.9189 165.664 69.3232 154.628 58.3681C143.696 47.5173 129.223 41.5575 113.83 41.5575C113.682 41.5575 113.535 41.5581 113.387 41.5587C81.7069 41.7924 55.9243 67.7601 55.9135 99.4456C55.9123 102.753 53.2301 105.434 49.9225 105.435C49.9213 105.435 49.9213 105.435 49.9201 105.435C46.6119 105.434 43.9304 102.751 43.9316 99.4421C43.9442 61.2006 75.0623 29.8596 113.298 29.578C113.476 29.5768 113.655 29.5762 113.833 29.5762C132.409 29.5762 149.875 36.7684 163.069 49.8652C176.389 63.0866 183.725 80.703 183.725 99.4684C183.724 102.777 181.042 105.459 177.733 105.459Z" fill="#340E33"/>
<path d="M217.898 61.2281C217.572 61.2281 217.242 61.2018 216.91 61.1461C213.646 60.6045 211.439 57.5191 211.981 54.2553C212.522 50.9944 210.312 47.8989 207.054 47.3543C203.79 46.8085 201.587 43.7214 202.132 40.4575C202.678 37.1943 205.77 34.9932 209.029 35.536C218.797 37.1685 225.423 46.4461 223.801 56.2173C223.314 59.1493 220.775 61.2281 217.898 61.2281Z" fill="#AB3356" fill-opacity="0.5"/>
<path d="M235.625 64.1822C235.297 64.1822 234.966 64.1553 234.633 64.0995C231.369 63.5556 229.165 60.469 229.708 57.2052C231.88 44.1713 223.044 31.8 210.01 29.6277C206.746 29.0837 204.542 25.9971 205.085 22.7333C205.629 19.47 208.716 17.2659 211.98 17.8087C231.531 21.0672 244.785 39.6241 241.527 59.175C241.039 62.1052 238.5 64.1822 235.625 64.1822Z" fill="#340F33"/>
<path d="M253.352 67.1352C253.025 67.1352 252.693 67.1083 252.36 67.0531C249.097 66.5092 246.892 63.4226 247.435 60.1594C249.276 49.1103 246.704 38.0054 240.193 28.8902C233.682 19.775 224.012 13.7415 212.964 11.9011C209.701 11.3571 207.495 8.27057 208.039 5.0073C208.583 1.74344 211.667 -0.460633 214.933 0.0821463C229.138 2.44857 241.572 10.2062 249.943 21.9263C258.314 33.6452 261.621 47.9228 259.254 62.1286C258.766 65.0582 256.228 67.1352 253.352 67.1352Z" fill="#AB3356"/>
<path d="M161.756 233.665C161.756 228.704 157.73 224.679 152.769 224.679C138.302 224.679 93.1376 224.679 74.8868 224.679C69.9347 224.679 65.9004 228.704 65.9004 233.665C65.9004 238.625 69.9263 242.651 74.8868 242.651H80.8778C75.9256 242.651 71.8913 246.677 71.8913 251.638C71.8913 256.598 75.9173 260.624 80.8778 260.624H104.842C99.8894 260.624 95.8551 264.65 95.8551 269.611C95.8551 274.571 99.881 278.597 104.842 278.597H122.814C127.766 278.597 131.801 274.571 131.801 269.611C131.801 264.65 127.775 260.624 122.814 260.624H146.778C151.73 260.624 155.765 256.598 155.765 251.638C155.765 246.677 151.739 242.651 146.778 242.651H152.769C157.721 242.651 161.756 238.625 161.756 233.665Z" fill="#340F33"/>
<path d="M146.778 242.651C151.739 242.651 155.765 246.677 155.765 251.638C155.765 254.118 154.758 256.365 153.129 257.988C151.505 259.618 149.258 260.624 146.778 260.624H122.814H104.842H80.8778C75.9173 260.624 71.8914 256.598 71.8914 251.638C71.8914 249.158 72.8978 246.911 74.5268 245.287C76.1503 243.657 78.3969 242.651 80.8778 242.651H146.778Z" fill="#AB3356"/>
</svg>
